<svg width="750" height="750" viewBox="0 0 750 750" fill="none" xmlns="http://www.w3.org/2000/svg">
<path d="M343.75 39.0625C175.476 39.0625 39.0625 175.476 39.0625 343.75C39.0625 512.024 175.476 648.438 343.75 648.438C419.45 648.438 488.702 620.83 541.988 575.135L670.927 704.073C680.08 713.226 694.92 713.226 704.073 704.073C713.226 694.92 713.226 680.08 704.073 670.927L575.135 541.988C620.83 488.702 648.438 419.45 648.438 343.75C648.438 175.476 512.024 39.0625 343.75 39.0625ZM343.75 85.9375C486.136 85.9375 601.562 201.364 601.562 343.75C601.562 486.136 486.136 601.562 343.75 601.562C201.364 601.562 85.9375 486.136 85.9375 343.75C85.9375 201.364 201.364 85.9375 343.75 85.9375Z" fill="white"/>
</svg>
